<?xml version="1.0" encoding="UTF-8" standalone="no"?>
<!-- Created with Inkscape (http://www.inkscape.org/) -->

<svg
   xmlns:dc="http://purl.org/dc/elements/1.1/"
   xmlns:cc="http://creativecommons.org/ns#"
   xmlns:rdf="http://www.w3.org/1999/02/22-rdf-syntax-ns#"
   xmlns:svg="http://www.w3.org/2000/svg"
   xmlns="http://www.w3.org/2000/svg"
   xmlns:sodipodi="http://sodipodi.sourceforge.net/DTD/sodipodi-0.dtd"
   xmlns:inkscape="http://www.inkscape.org/namespaces/inkscape"
   width="600"
   height="450"
   viewBox="0 0 600.00001 450"
   id="svg2"
   version="1.1"
   inkscape:version="0.48.4 r9939"
   sodipodi:docname="logotipo_vertical.svg">
  <defs
     id="defs4" />
  <sodipodi:namedview
     id="base"
     pagecolor="#ffffff"
     bordercolor="#666666"
     borderopacity="1.0"
     inkscape:pageopacity="0.0"
     inkscape:pageshadow="2"
     inkscape:zoom="0.9899495"
     inkscape:cx="183.71792"
     inkscape:cy="224.97628"
     inkscape:document-units="px"
     inkscape:current-layer="layer1"
     showgrid="false"
     inkscape:window-width="1366"
     inkscape:window-height="705"
     inkscape:window-x="-8"
     inkscape:window-y="-8"
     inkscape:window-maximized="1"
     showguides="true"
     inkscape:guide-bbox="true">
    <sodipodi:guide
       position="-2485.7143,2.8571429"
       orientation="0,1"
       id="guide4499" />
  </sodipodi:namedview>
  <metadata
     id="metadata7">
    <rdf:RDF>
      <cc:Work
         rdf:about="">
        <dc:format>image/svg+xml</dc:format>
        <dc:type
           rdf:resource="http://purl.org/dc/dcmitype/StillImage" />
        <dc:title></dc:title>
      </cc:Work>
    </rdf:RDF>
  </metadata>
  <g
     inkscape:label="Camada 1"
     inkscape:groupmode="layer"
     id="layer1"
     transform="translate(0,-602.3622)">
    <g
       id="g4381"
       transform="matrix(0.32302341,0,0,0.32302341,797.91745,631.36532)">
      <path
         style="fill:#000000;fill-opacity:1;stroke:none"
         d="m -1541.4306,30.948148 a 765.13828,765.13828 0 0 0 -370.3776,96.612452 765.13828,765.13828 0 0 0 -9.1302,111.50457 765.13828,765.13828 0 0 0 379.3698,659.85527 765.13828,765.13828 0 0 0 379.6503,-659.85527 765.13828,765.13828 0 0 0 -8.9627,-112.16986 765.13828,765.13828 0 0 0 -370.5496,-95.947162 z"
         id="path4165"
         inkscape:connector-curvature="0" />
      <path
         inkscape:connector-curvature="0"
         id="path4163"
         d="m -1548.5734,59.7315 a 726.98505,726.98505 0 0 0 -351.9089,91.79493 726.98505,726.98505 0 0 0 -8.6749,105.94445 726.98505,726.98505 0 0 0 360.4527,626.95192 726.98505,726.98505 0 0 0 360.7192,-626.95192 726.98505,726.98505 0 0 0 -8.5158,-106.57657 726.98505,726.98505 0 0 0 -352.0723,-91.16281 z"
         style="fill:#f4eed7;fill-opacity:1;stroke:none" />
      <g
         transform="translate(-920,0)"
         id="g4348">
        <path
           sodipodi:nodetypes="ccccccc"
           style="fill:#445500;fill-opacity:1;stroke:none"
           d="m -637.1445,94.017211 c -105.261,0.24698 -208.7331,58.666079 -300.703,109.866509 -4.6767,29.95488 -7.1542,60.21193 -7.4126,90.52858 0.2643,220.59576 117.4974,424.50458 308.0036,535.72478 190.5938,-111.16281 307.9197,-315.08237 308.2313,-535.72478 -0.187,-30.4937 -2.6192,-60.93223 -7.2767,-91.06872 C -428.3634,152.30853 -531.8835,94.075291 -637.1445,94.017211 z"
           id="path4329"
           inkscape:connector-curvature="0" />
        <path
           sodipodi:nodetypes="ccccccc"
           inkscape:connector-curvature="0"
           id="path4331"
           d="m -628.5733,152.363 c -115.9979,0.27217 -230.0243,-38.55564 -331.3753,17.86733 -5.1537,33.01033 -7.8839,66.35367 -8.1687,99.76267 0.2913,243.09696 129.4823,467.80487 339.4206,590.36973 210.0347,-122.50163 339.3281,-347.22137 339.6715,-590.36973 -0.2061,-33.60412 -2.8864,-67.14744 -8.019,-100.35791 C -398.4961,113.39437 -512.5754,152.427 -628.5733,152.363 z"
           style="fill:#a0b050;fill-opacity:1;stroke:none" />
        <path
           style="fill:#7a8f22;fill-opacity:1;stroke:none"
           d="m -815.0586,139.70898 c -42.5091,19.35144 -83.6911,42.40768 -122.7891,64.17383 -4.6767,29.95488 -7.1537,60.21265 -7.4121,90.5293 0.2643,220.59576 117.4977,424.50441 308.0039,535.72461 190.5938,-111.16281 307.9189,-315.0822 308.2305,-535.72461 -0.187,-30.4937 -2.6198,-60.93187 -7.2773,-91.06836 -38.7486,-21.4806 -79.5314,-44.22245 -121.6153,-63.37891 -55.5255,2.75789 -112.8528,12.43033 -170.6562,12.39844 -63.33,0.14859 -126.0716,-11.35723 -186.4844,-12.6543 z"
           id="path4333"
           inkscape:connector-curvature="0" />
      </g>
      <g
         id="g4374">
        <path
           style="font-size:medium;font-style:normal;font-variant:normal;font-weight:normal;font-stretch:normal;line-height:125%;letter-spacing:0px;word-spacing:0px;fill:#000000;fill-opacity:1;stroke:none;font-family:Dimitri Swank;-inkscape-font-specification:Dimitri Swank"
           d="m -1839.0033,333.35737 -9.6218,34.57331 0,280.84568 330.4081,0 53.8407,-83.14811 0,83.14811 96.9414,0 0,32.43189 101.2194,0 9.6218,-34.57089 0,-138.64076 -5.7007,-5.70315 5.7007,-11.76073 0.3569,-106.20876 -63.4412,-50.96659 z"
           id="path4303"
           inkscape:connector-curvature="0"
           sodipodi:nodetypes="cccccccccccccccc" />
        <g
           id="g4357">
          <path
             d="m -1656.9168,598.87975 -167.5102,0 0,-250.19593 167.5102,0 0,60.94507 -96.942,0 0,39.91741 37.4225,0 0,43.48131 -37.4225,0 0,44.90695 96.942,0 0,60.94519 z"
             style="font-size:medium;font-style:normal;font-variant:normal;font-weight:normal;font-stretch:normal;line-height:125%;letter-spacing:0px;word-spacing:0px;fill:#f4eed7;fill-opacity:1;stroke:none;font-family:Dimitri;-inkscape-font-specification:Dimitri"
             id="path4293"
             inkscape:connector-curvature="0" />
          <path
             d="m -1464.4361,348.68382 -167.5101,0 0,144.34379 99.0805,0 0,44.90695 -99.437,0 0,60.94519 114.4059,0 53.4607,-82.32947 0,-67.00398 -105.8522,0 0,-44.55057 105.8522,0 0,-56.31191 z"
             style="font-size:medium;font-style:normal;font-variant:normal;font-weight:normal;font-stretch:normal;line-height:125%;letter-spacing:0px;word-spacing:0px;fill:#f4eed7;fill-opacity:1;stroke:none;font-family:Dimitri;-inkscape-font-specification:Dimitri"
             id="path4295"
             inkscape:connector-curvature="0" />
          <path
             d="m -1272.3119,391.80876 -0.3563,83.3986 -38.8481,0.35638 38.8481,38.84815 0,116.90072 -70.568,0 0,-107.99065 -26.374,-26.73032 0,102.28811 -70.5681,0 0,-250.19593 114.4058,0 53.4606,43.12494 z m -70.9243,57.73754 0,-39.91741 -26.374,0 0,39.91741 26.374,0 z"
             style="font-size:medium;font-style:normal;font-variant:normal;font-weight:normal;font-stretch:normal;line-height:125%;letter-spacing:0px;word-spacing:0px;fill:#f4eed7;fill-opacity:1;stroke:none;font-family:Dimitri;-inkscape-font-specification:Dimitri"
             id="path4297"
             inkscape:connector-curvature="0" />
        </g>
      </g>
    </g>
    <text
       xml:space="preserve"
       style="font-size:46px;font-style:normal;font-variant:normal;font-weight:normal;font-stretch:normal;text-align:center;line-height:125%;letter-spacing:-3.57000184px;word-spacing:0px;text-anchor:middle;fill:#000000;fill-opacity:1;stroke:none;font-family:Final;-inkscape-font-specification:Final"
       x="305.75003"
       y="1000.6807"
       id="text2996"
       sodipodi:linespacing="125%"><tspan
         sodipodi:role="line"
         x="303.96503"
         y="1000.6807"
         id="tspan3044">development team</tspan></text>
  </g>
</svg>
